<?xml version="1.0" encoding="UTF-8" standalone="no"?>
<!-- Created with Inkscape (http://www.inkscape.org/) -->

<svg
   version="1.1"
   id="svg1"
   width="768"
   height="768"
   viewBox="0 0 768 768"
   xmlns="http://www.w3.org/2000/svg"
   xmlns:svg="http://www.w3.org/2000/svg">
  <defs
     id="defs1" />
  <g
     id="g1"
     style="fill:#000080">
    <path
       style="fill:#000080;stroke-width:2.55541"
       d="M 368.9172,742.61052 C 285.575,734.45848 220.94455,709.92159 160.46628,663.47226 60.413658,586.62851 12.563705,454.88598 35.75255,320.10516 c 4.662153,-27.09775 20.537812,-75.10496 33.059728,-99.97089 20.916483,-41.5359 55.562012,-83.57405 90.344932,-109.62274 18.39857,-13.77859 23.16898,-14.54692 11.35147,-1.8283 -15.54323,16.72844 -43.09723,54.28894 -53.87665,73.44249 -2.76448,4.91218 -8.58551,15.25585 -12.93553,22.98598 -19.418473,34.50705 -34.942601,86.41681 -38.592321,129.04544 -1.203242,14.05319 -1.635567,26.98995 -0.960823,28.74833 0.880102,2.29358 9.273841,3.20001 29.70181,3.20742 15.661194,0.005 43.306254,0.76674 61.433374,1.69117 l 32.95842,1.68082 -1.46963,-6.16312 c -0.8083,-3.38974 -5.61282,-19.35507 -10.67674,-35.47853 -10.64745,-33.90131 -10.73311,-43.9181 -0.18621,-21.79282 9.79128,20.54028 40.96667,51.30021 75.46402,74.45828 28.27152,18.97872 61.79176,37.2036 135.43674,73.63661 94.26426,46.63366 105.49101,53.27722 126.64481,74.94374 16.21237,16.60528 29.52155,37.6057 38.70758,61.07609 5.70824,14.58466 6.84534,21.58748 6.97859,42.97779 0.14334,22.99279 -0.5838,27.16312 -7.25389,41.60727 -13.08603,28.33798 -43.38717,51.41072 -79.47087,60.51274 -27.79467,7.01114 -73.65037,10.2667 -103.4941,7.34759 z m 88.60245,-35.47944 c 40.70179,-8.29843 56.93651,-23.99329 57.01391,-55.11811 0.0676,-27.08233 -11.52232,-47.544 -46.98855,-82.95865 -35.17688,-35.12579 -72.72335,-60.38978 -129.29272,-86.99751 -41.10727,-19.33506 -65.83875,-32.62125 -81.77315,-43.92998 -17.87627,-12.68697 -42.75137,-36.36692 -55.52645,-52.8587 -4.3549,-5.62191 -8.71455,-9.42844 -9.68814,-8.45899 -3.87975,3.86344 8.35405,128.76586 14.08987,143.85224 2.27159,5.97476 2.44776,6.00142 15.85044,2.39844 34.63504,-9.31073 75.17335,-14.56746 111.55455,-14.46558 20.16923,0.0566 37.71914,1.15042 38.99966,2.43098 1.37655,1.37655 1.60043,33.07891 0.54771,77.55547 -0.97932,41.37494 -2.60298,72.35231 -3.60806,68.83861 -1.00511,-3.51366 -1.95971,-33.98696 -2.12134,-67.71837 -0.16155,-33.73139 -1.28502,-62.89422 -2.49643,-64.80621 -4.6295,-7.30674 -92.93876,4.11121 -136.96146,17.70845 l -17.24406,5.32612 1.74208,13.21959 c 2.07114,15.7167 8.95394,37.54277 16.50918,52.35225 3.0017,5.88383 4.4208,10.69785 3.15359,10.69785 -6.1812,0 -27.19328,-36.23865 -33.70851,-58.13558 -1.77731,-5.97328 -4.48687,-10.85956 -6.02121,-10.85846 -9.11976,0.008 -57.71908,27.40449 -57.72651,32.54335 -0.008,5.34408 48.71364,52.55179 68.99152,66.84804 42.83548,30.19986 98.87424,50.90989 153.3246,56.66361 26.63328,2.8143 77.48212,0.74344 101.37948,-4.12886 z m -303.21144,-159.99647 33.69949,-13.17914 -1.44299,-9.1807 c -0.79363,-5.04938 -3.85262,-33.90433 -6.79783,-64.12206 -2.94514,-30.21771 -5.82757,-56.37874 -6.40535,-58.13554 -1.61853,-4.92145 -108.538121,-4.59652 -108.538121,0.32982 0,8.82659 10.289756,61.31663 15.352677,78.31711 8.833138,29.65989 32.730324,79.14961 38.219134,79.14961 1.21743,0 17.37826,-5.9306 35.91299,-13.1791 z M 603.16294,666.6625 c 58.65326,-76.23219 78.76262,-112.47398 95.715,-172.50071 5.10121,-18.06302 12.18954,-63.94701 12.38114,-80.14533 l 0.0834,-7.02734 h -62.881 c -58.90937,0 -62.76053,0.28245 -60.97429,4.47195 10.13471,23.77009 21.80841,69.63492 17.72375,69.63492 -0.69405,0 -4.38943,-6.6121 -8.21196,-14.69358 C 583.53732,437.9421 542.64321,401.43293 490.29943,371.14382 465.59387,356.84779 401.58781,324.33364 350.14337,299.94659 286.85273,269.94388 261.29654,250.90742 239.58385,217.59224 225.5204,196.01371 218.72734,178.66012 215.53621,156.15983 207.38168,98.66282 239.26135,55.183914 301.57083,38.821992 c 14.81425,-3.890068 31.45009,-5.63727 63.51348,-6.670656 52.46813,-1.690891 87.18387,3.268481 136.7026,19.528971 57.2886,18.811906 103.21089,47.365873 144.33426,89.745483 46.17919,47.58989 72.99768,99.00437 88.75243,170.14973 4.70594,21.25102 5.57557,33.24319 5.62194,77.5257 0.0468,44.72313 -0.77421,56.18833 -5.61315,78.38058 -9.7995,44.9423 -32.33612,96.40533 -57.36622,130.99752 -13.24216,18.30096 -42.6518,48.58754 -61.1687,62.99263 -16.27827,12.66361 -20.08808,14.16352 -13.18429,5.19055 z m -20.79781,-296.088 c -3.8804,-62.89024 -12.86702,-123.79048 -18.13445,-122.89307 -1.30899,0.22309 -17.32914,3.58647 -35.60033,7.4744 -29.00846,6.17266 -39.10537,7.0932 -79.63724,7.26072 -25.5293,0.1058 -47.17808,-0.56643 -48.10844,-1.49328 -0.93031,-0.92682 -0.78848,-33.12498 0.31527,-71.55146 2.26386,-78.81768 4.93453,-78.32199 5.70419,1.05873 0.28282,29.17049 1.18762,54.79212 2.01064,56.93692 1.23389,3.21543 4.91812,3.63473 20.99719,2.38972 55.84409,-4.32421 129.80034,-18.98588 132.60249,-26.2882 2.30991,-6.0195 -6.34711,-37.60924 -16.07882,-58.67227 -8.79411,-19.03367 -8.84699,-19.33766 -2.29947,-13.22085 8.94824,8.35965 18.09773,24.29521 26.77864,46.64014 3.93054,10.11726 8.83676,18.74289 10.90277,19.16801 4.79877,0.98744 55.92608,-25.29679 57.31574,-29.4657 1.82042,-5.46131 -55.20569,-59.96075 -78.56035,-75.07951 -55.55707,-35.965236 -109.46655,-51.473791 -178.8787,-51.459449 -56.13211,0.01412 -90.18473,7.167146 -107.18091,22.522149 -13.39342,12.10017 -16.41507,20.61685 -14.88784,41.96218 2.20433,30.80787 20.6618,59.57351 58.63613,91.38318 33.41225,27.98819 60.14529,44.57726 124.74668,77.41106 67.32277,34.21692 84.51845,45.98203 115.33699,78.91246 11.76628,12.57263 22.34785,22.9353 23.51458,23.02821 1.16676,0.0928 1.39412,-11.61794 0.50524,-26.02409 z m 122.92226,-16.61017 c -2.34278,-27.63743 -11.88641,-63.81762 -24.77199,-93.9113 -8.86428,-20.70216 -19.56968,-41.3687 -24.29256,-46.89638 -0.42245,-0.49438 -16.32443,5.25526 -35.33776,12.77707 l -34.56968,13.676 -0.0912,8.94396 c -0.0501,4.91913 2.10635,26.19294 4.79233,47.27507 2.68605,21.08215 5.69465,47.24315 6.68586,58.13558 l 1.80227,19.80443 h 53.7308 53.73079 z"
       id="path1" />
  </g>
</svg>
